<?xml version="1.0" encoding="UTF-8" ?>
<!DOCTYPE svg PUBLIC "-//W3C//DTD SVG 1.1//EN" "http://www.w3.org/Graphics/SVG/1.1/DTD/svg11.dtd">
<svg width="838pt" height="840pt" viewBox="0 0 838 840" version="1.1" xmlns="http://www.w3.org/2000/svg">
<g id="#ffffffff">
</g>
<g id="#20314fff">
<path fill="#000000" opacity="1.00" d=" M 118.47 0.00 L 719.35 0.00 C 740.16 1.24 761.14 6.07 779.13 16.92 C 798.61 28.43 814.75 45.52 825.26 65.56 C 832.15 78.83 836.08 93.45 838.00 108.23 L 838.00 731.56 C 835.92 748.01 831.29 764.34 822.87 778.71 C 811.71 798.55 794.66 814.91 774.60 825.63 C 757.65 834.79 738.42 838.83 719.32 840.00 L 118.63 840.00 C 99.77 838.84 80.82 834.87 64.01 825.98 C 46.54 816.70 31.33 803.13 20.17 786.79 C 8.83 770.63 2.53 751.41 0.00 731.95 L 0.00 107.34 C 2.71 88.39 8.76 69.68 19.72 53.83 C 33.25 34.37 52.00 18.14 74.17 9.37 C 88.24 3.62 103.37 1.01 118.47 0.00 M 132.29 90.26 C 123.82 91.14 115.48 93.71 108.20 98.17 C 104.15 101.43 100.22 104.95 97.16 109.19 C 92.43 117.01 89.78 126.03 89.13 135.12 C 89.63 140.34 90.47 145.56 92.32 150.48 C 95.85 161.64 104.38 171.30 115.39 175.49 C 123.49 178.62 132.43 181.08 141.09 178.93 C 149.74 177.16 158.41 173.91 164.97 167.82 C 173.60 159.62 177.59 147.73 178.80 136.13 C 178.38 120.91 171.60 104.90 157.93 97.06 C 150.09 92.87 141.21 90.14 132.29 90.26 M 703.24 90.17 C 694.46 90.98 685.74 93.49 678.23 98.16 C 672.65 102.67 667.01 107.67 664.34 114.52 C 660.69 123.09 657.80 132.71 660.05 142.03 C 661.73 150.41 664.78 158.92 670.78 165.20 C 678.89 174.85 691.83 178.78 703.98 179.86 C 715.13 178.94 726.62 175.43 735.03 167.77 C 743.83 159.28 747.94 146.99 748.86 135.03 C 747.82 123.32 744.18 110.92 735.27 102.74 C 726.85 94.45 714.80 90.81 703.24 90.17 M 289.97 233.02 C 278.15 241.99 269.56 254.49 262.72 267.50 C 260.51 272.46 258.63 277.56 256.41 282.51 C 253.60 291.98 252.96 302.41 256.32 311.83 C 260.09 323.75 270.26 332.40 281.06 337.95 C 284.05 339.85 287.63 340.25 291.03 340.99 C 303.42 343.45 317.14 341.18 327.03 332.98 C 333.34 327.55 337.96 320.49 342.18 313.39 C 341.51 308.54 344.66 303.94 348.85 301.79 C 352.29 300.04 356.24 300.04 360.01 299.98 C 394.33 299.99 428.65 300.00 462.97 299.98 C 469.33 300.05 475.84 301.21 481.38 304.49 C 494.93 313.01 498.30 334.36 487.36 346.29 C 485.05 349.42 481.43 351.03 478.19 352.97 C 451.15 368.98 424.06 384.92 397.03 400.96 C 387.54 406.62 379.39 415.19 376.19 425.96 C 373.05 437.04 374.26 448.65 373.99 460.01 C 373.87 475.09 379.01 491.27 391.49 500.61 C 399.48 506.28 409.29 509.05 418.97 509.88 C 432.28 508.70 446.57 503.93 454.55 492.54 C 460.42 484.59 462.90 474.70 463.96 465.01 C 483.16 454.20 502.34 443.37 521.58 432.62 C 544.48 419.23 564.31 399.33 574.38 374.49 C 580.63 360.16 583.45 344.53 583.91 328.96 C 583.07 306.00 577.67 282.57 564.50 263.43 C 553.64 246.62 537.87 233.31 520.41 223.72 C 503.05 214.73 483.48 210.70 464.03 210.01 C 436.02 210.01 408.01 210.01 379.99 210.01 C 369.97 210.12 359.94 209.72 349.93 210.39 C 328.23 211.29 306.70 219.07 289.97 233.02 M 408.62 570.88 C 392.18 572.82 377.33 582.66 368.31 596.39 C 363.33 603.98 360.66 612.88 359.61 621.84 C 358.08 636.14 360.31 651.43 368.28 663.64 C 376.09 675.56 388.28 684.71 402.28 687.84 C 416.32 691.29 431.46 690.35 444.88 684.92 C 457.40 679.61 467.47 669.36 473.37 657.19 C 480.07 641.70 480.62 623.73 475.23 607.78 C 470.64 594.16 460.21 583.01 447.63 576.32 C 435.57 570.60 421.78 569.00 408.62 570.88 M 132.19 660.27 C 123.78 661.18 115.47 663.67 108.25 668.14 C 102.69 672.63 97.11 677.62 94.38 684.41 C 90.66 692.99 87.90 702.65 90.06 712.00 C 92.08 724.21 98.64 736.01 109.38 742.57 C 116.90 746.75 125.34 749.24 133.92 749.87 C 145.10 748.91 156.61 745.46 165.05 737.76 C 173.89 729.23 177.95 716.89 178.88 704.88 C 178.15 695.88 175.53 686.99 170.89 679.22 C 167.77 674.70 163.63 670.98 159.21 667.78 C 151.03 663.14 141.63 660.09 132.19 660.27 M 703.22 660.17 C 694.47 660.99 685.78 663.50 678.27 668.13 C 674.03 671.54 669.86 675.22 666.79 679.76 C 662.37 687.42 659.76 696.12 659.14 704.94 C 659.54 710.75 660.73 716.53 662.86 721.97 C 666.44 732.08 674.24 740.78 684.16 744.99 C 690.45 747.71 697.19 749.40 704.03 749.86 C 717.57 748.75 732.02 743.67 739.97 731.99 C 745.40 724.05 748.17 714.45 748.86 704.92 C 747.78 693.24 744.14 680.89 735.26 672.72 C 726.83 664.45 714.77 660.81 703.22 660.17 Z" />
</g>
</svg>
