<?xml version="1.0" encoding="UTF-8" ?>
<!DOCTYPE svg PUBLIC "-//W3C//DTD SVG 1.1//EN" "http://www.w3.org/Graphics/SVG/1.1/DTD/svg11.dtd">
<svg width="512pt" height="512pt" viewBox="0 0 512 512" version="1.1" xmlns="http://www.w3.org/2000/svg">
<g id="#000000ff">
<path fill="#000000" opacity="1.00" d=" M 158.30 59.30 C 172.33 48.57 191.59 45.17 208.45 50.50 C 223.34 54.97 235.92 66.06 242.57 80.08 C 248.69 75.31 256.10 71.82 264.00 72.02 C 271.90 71.83 279.32 75.31 285.43 80.08 C 291.84 66.51 303.83 55.73 318.08 50.97 C 334.58 45.26 353.70 47.96 367.96 58.05 C 380.58 66.73 389.15 80.83 391.37 95.96 C 396.91 96.00 402.45 96.02 408.00 95.99 C 408.00 101.33 408.00 106.67 408.00 112.01 C 402.45 111.98 396.90 111.99 391.35 112.05 C 388.85 128.33 378.88 143.27 364.66 151.63 C 351.87 159.50 335.85 161.19 321.41 157.61 C 301.08 152.31 284.69 134.69 281.01 113.99 C 279.50 107.46 281.26 99.86 276.67 94.31 C 271.69 87.35 260.93 85.93 254.28 91.29 C 249.98 94.43 247.89 99.77 247.93 104.99 C 247.63 122.90 238.02 140.27 223.07 150.11 C 213.97 156.24 203.00 159.63 192.00 159.33 C 173.32 159.87 155.05 149.62 145.02 133.99 C 140.67 127.39 137.96 119.82 136.65 112.05 C 131.10 111.99 125.55 111.98 120.00 112.01 C 120.00 106.67 120.00 101.33 120.00 95.99 C 125.55 96.02 131.09 96.00 136.63 95.96 C 138.73 81.53 146.61 68.04 158.30 59.30 M 156.82 84.84 C 151.80 93.93 150.72 104.95 153.64 114.90 C 162.01 106.86 170.07 98.52 178.32 90.36 C 182.12 94.10 185.89 97.88 189.64 101.68 C 180.30 111.07 170.85 120.33 161.61 129.81 C 169.78 139.30 182.37 144.88 194.93 143.85 C 207.52 143.02 219.43 135.74 225.99 124.98 C 231.88 115.61 233.52 103.74 230.35 93.13 C 221.97 101.14 213.93 109.49 205.68 117.64 C 201.89 113.90 198.12 110.12 194.37 106.34 C 203.70 96.92 213.17 87.65 222.43 78.17 C 214.41 68.95 202.28 63.33 189.99 64.04 C 176.30 64.55 163.25 72.74 156.82 84.84 M 299.55 87.59 C 295.65 96.09 295.02 105.93 297.64 114.90 C 308.68 104.20 319.41 93.18 330.32 82.36 C 334.12 86.10 337.89 89.88 341.64 93.68 C 329.63 105.74 317.50 117.68 305.58 129.83 C 313.59 139.07 325.74 144.65 338.03 143.95 C 351.94 143.42 365.20 134.95 371.50 122.52 C 376.23 113.57 377.20 102.83 374.35 93.13 C 365.97 101.14 357.93 109.49 349.68 117.64 C 345.89 113.90 342.12 110.12 338.37 106.34 C 347.69 96.93 357.16 87.66 366.41 78.19 C 358.02 68.48 345.02 62.84 332.16 64.21 C 318.13 65.42 305.24 74.73 299.55 87.59 Z" />
<path fill="#000000" opacity="1.00" d=" M 32.00 160.00 C 176.00 159.99 320.00 159.97 464.00 160.00 C 464.00 192.00 464.00 224.00 464.00 256.00 C 474.67 256.00 485.33 256.00 496.00 256.00 C 496.00 288.00 496.00 320.00 496.00 352.00 C 490.66 351.98 485.33 352.01 480.00 352.00 C 480.00 389.33 480.00 426.67 480.00 464.00 C 325.33 464.00 170.67 464.00 16.00 464.00 C 16.00 421.33 16.00 378.67 16.00 336.00 C 42.67 336.00 69.33 336.00 96.00 336.00 C 96.00 314.67 96.00 293.33 96.00 272.00 C 74.67 272.00 53.33 272.00 32.00 272.00 C 32.00 234.67 32.00 197.33 32.00 160.00 M 48.00 176.01 C 48.00 202.67 47.99 229.33 48.01 255.99 C 53.33 256.01 58.66 256.01 63.99 255.99 C 64.01 229.33 64.00 202.67 63.99 176.01 C 58.66 175.99 53.33 175.99 48.00 176.01 M 80.00 176.00 C 80.00 202.67 80.00 229.33 80.00 256.00 C 106.67 256.00 133.33 256.00 160.00 256.00 C 160.00 229.33 160.00 202.67 160.00 176.00 C 133.33 176.00 106.67 176.00 80.00 176.00 M 176.01 176.01 C 175.99 202.67 175.99 229.33 176.01 255.99 C 202.67 256.01 229.33 256.01 255.99 255.99 C 256.01 229.33 256.01 202.67 255.99 176.01 C 229.33 175.99 202.67 175.99 176.01 176.01 M 272.00 176.00 C 272.00 202.67 272.00 229.33 272.00 256.00 C 277.33 255.99 282.67 255.99 288.00 256.00 C 288.00 229.33 288.00 202.67 288.00 176.00 C 282.67 176.00 277.33 176.00 272.00 176.00 M 304.01 176.01 C 303.99 202.67 304.00 229.33 304.01 255.99 C 309.33 256.01 314.66 256.01 319.99 255.99 C 320.01 229.33 320.00 202.67 319.99 176.01 C 314.66 175.99 309.34 175.99 304.01 176.01 M 336.00 176.00 C 336.00 202.67 336.00 229.33 336.00 256.00 C 362.67 256.00 389.33 256.00 416.00 256.00 C 416.00 229.33 416.00 202.67 416.00 176.00 C 389.33 176.00 362.67 176.00 336.00 176.00 M 432.00 176.01 C 432.00 202.67 431.99 229.33 432.01 255.99 C 437.33 256.01 442.66 256.01 447.99 255.99 C 448.00 229.33 448.00 202.67 447.99 176.01 C 442.66 175.99 437.33 175.99 432.00 176.01 M 112.00 272.00 C 112.00 293.33 112.00 314.67 112.00 336.00 C 170.67 336.00 229.33 336.00 288.00 336.00 C 288.00 314.67 288.00 293.33 288.00 272.00 C 229.33 272.00 170.67 272.00 112.00 272.00 M 304.00 272.00 C 304.00 293.33 304.00 314.67 304.00 336.00 C 320.00 336.00 336.00 336.00 352.00 336.00 C 352.00 314.67 352.00 293.33 352.00 272.00 C 336.00 272.00 320.00 272.00 304.00 272.00 M 368.00 272.00 C 368.00 293.33 368.00 314.67 368.00 336.00 C 373.33 336.00 378.67 336.00 384.00 336.00 C 384.00 314.67 384.00 293.33 384.00 272.00 C 378.67 272.00 373.33 272.00 368.00 272.00 M 400.00 272.00 C 400.00 293.33 400.00 314.67 400.00 336.00 C 416.00 336.00 432.00 336.00 448.00 336.00 C 448.00 314.67 448.00 293.33 448.00 272.00 C 432.00 272.00 416.00 272.00 400.00 272.00 M 464.00 272.00 C 464.00 293.33 464.00 314.67 464.00 336.00 C 469.33 336.00 474.67 336.00 480.00 336.00 C 480.00 314.67 480.00 293.33 480.00 272.00 C 474.67 272.00 469.33 272.00 464.00 272.00 M 32.04 352.06 C 31.97 384.02 31.97 415.98 32.04 447.94 C 37.34 448.07 42.65 448.07 47.96 447.95 C 48.03 415.98 48.03 384.02 47.96 352.06 C 42.65 351.93 37.34 351.93 32.04 352.06 M 64.00 352.00 C 64.00 384.00 64.00 416.00 64.00 448.00 C 80.00 448.00 96.00 448.00 112.00 448.00 C 112.00 416.00 112.00 384.00 112.00 352.00 C 96.00 352.00 80.00 352.00 64.00 352.00 M 128.04 352.04 C 127.97 384.01 127.97 415.99 128.04 447.96 C 160.01 448.03 191.99 448.03 223.96 447.96 C 224.03 415.99 224.03 384.01 223.96 352.04 C 191.99 351.97 160.01 351.97 128.04 352.04 M 240.00 352.00 C 240.00 384.00 240.00 416.00 240.00 448.00 C 245.33 447.99 250.67 447.99 256.00 448.00 C 256.00 416.00 256.00 384.00 256.00 352.00 C 250.67 352.00 245.33 352.00 240.00 352.00 M 272.04 352.06 C 271.97 384.02 271.97 415.98 272.04 447.95 C 277.35 448.07 282.65 448.07 287.96 447.95 C 288.03 415.98 288.03 384.02 287.96 352.05 C 282.65 351.93 277.34 351.93 272.04 352.06 M 304.00 352.00 C 304.00 384.00 304.00 416.00 304.00 448.00 C 309.33 447.99 314.67 447.99 320.00 448.00 C 320.00 416.00 320.00 384.00 320.00 352.00 C 314.67 352.00 309.33 352.00 304.00 352.00 M 336.04 352.04 C 335.97 384.01 335.97 415.99 336.04 447.96 C 378.68 448.03 421.32 448.03 463.96 447.96 C 464.03 415.99 464.03 384.01 463.96 352.04 C 421.32 351.97 378.68 351.97 336.04 352.04 Z" />
<path fill="#000000" opacity="1.00" d=" M 114.39 192.70 C 120.71 191.15 127.63 192.33 133.06 195.91 C 139.46 200.02 143.67 207.34 143.93 214.95 C 144.28 222.05 141.25 229.22 135.91 233.91 C 129.83 239.42 120.79 241.37 112.97 238.94 C 106.45 236.95 100.89 232.07 98.12 225.85 C 94.67 218.35 95.56 209.09 100.31 202.34 C 103.61 197.54 108.73 194.06 114.39 192.70 M 117.42 208.45 C 111.68 210.10 110.12 218.49 114.85 222.11 C 119.08 226.00 126.75 223.44 127.79 217.78 C 129.41 211.97 123.03 206.21 117.42 208.45 Z" />
<path fill="#000000" opacity="1.00" d=" M 144.04 368.06 C 149.34 367.93 154.65 367.93 159.96 368.05 C 160.03 389.35 160.03 410.65 159.96 431.94 C 154.65 432.07 149.35 432.07 144.04 431.95 C 143.97 410.65 143.97 389.35 144.04 368.06 Z" />
<path fill="#000000" opacity="1.00" d=" M 176.04 368.06 C 181.34 367.93 186.65 367.93 191.96 368.06 C 192.03 389.35 192.03 410.65 191.96 431.95 C 186.65 432.07 181.34 432.07 176.04 431.95 C 175.97 410.65 175.97 389.35 176.04 368.06 Z" />
<path fill="#000000" opacity="1.00" d=" M 394.36 368.51 C 402.85 366.98 411.91 369.02 418.85 374.15 C 427.87 380.60 433.00 391.99 431.83 403.02 C 430.73 417.90 417.89 430.73 403.02 431.84 C 389.22 433.40 375.15 424.74 370.25 411.76 C 366.61 402.68 367.46 391.92 372.55 383.57 C 377.20 375.72 385.37 370.06 394.36 368.51 M 397.34 384.23 C 389.20 385.40 382.95 393.64 384.13 401.80 C 384.86 410.31 393.34 417.06 401.81 415.87 C 410.34 415.12 417.11 406.58 415.86 398.09 C 415.04 389.30 406.00 382.54 397.34 384.23 Z" />
<path fill="#000000" opacity="1.00" d=" M 80.00 376.00 C 85.33 376.00 90.67 376.00 96.00 376.00 C 95.99 381.33 96.00 386.67 96.00 392.00 C 90.67 391.99 85.33 391.99 80.00 392.00 C 80.00 386.67 80.00 381.33 80.00 376.00 Z" />
<path fill="#000000" opacity="1.00" d=" M 80.00 408.00 C 85.33 408.00 90.67 408.00 96.00 408.00 C 96.00 413.33 95.99 418.67 96.00 424.00 C 90.67 423.99 85.33 423.99 80.00 424.00 C 80.00 418.67 80.00 413.33 80.00 408.00 Z" />
</g>
<g id="#50b4f8ff">
<path fill="#50b4f8" opacity="1.00" d=" M 156.82 84.84 C 163.25 72.74 176.30 64.55 189.99 64.04 C 202.28 63.33 214.41 68.95 222.43 78.17 C 213.17 87.65 203.70 96.92 194.37 106.34 C 198.12 110.12 201.89 113.90 205.68 117.64 C 213.93 109.49 221.97 101.14 230.35 93.13 C 233.52 103.74 231.88 115.61 225.99 124.98 C 219.43 135.74 207.52 143.02 194.93 143.85 C 182.37 144.88 169.78 139.30 161.61 129.81 C 170.85 120.33 180.30 111.07 189.64 101.68 C 185.89 97.88 182.12 94.10 178.32 90.36 C 170.07 98.52 162.01 106.86 153.64 114.90 C 150.72 104.95 151.80 93.93 156.82 84.84 Z" />
<path fill="#50b4f8" opacity="1.00" d=" M 299.55 87.59 C 305.24 74.73 318.13 65.42 332.16 64.21 C 345.02 62.84 358.02 68.48 366.41 78.19 C 357.16 87.66 347.69 96.93 338.37 106.34 C 342.12 110.12 345.89 113.90 349.68 117.64 C 357.93 109.49 365.97 101.14 374.35 93.13 C 377.20 102.83 376.23 113.57 371.50 122.52 C 365.20 134.95 351.94 143.42 338.03 143.95 C 325.74 144.65 313.59 139.07 305.58 129.83 C 317.50 117.68 329.63 105.74 341.64 93.68 C 337.89 89.88 334.12 86.10 330.32 82.36 C 319.41 93.18 308.68 104.20 297.64 114.90 C 295.02 105.93 295.65 96.09 299.55 87.59 Z" />
</g>
<g id="#ad6327ff">
<path fill="#ad6327" opacity="1.00" d=" M 48.00 176.01 C 53.33 175.99 58.66 175.99 63.99 176.01 C 64.00 202.67 64.01 229.33 63.99 255.99 C 58.66 256.01 53.33 256.01 48.01 255.99 C 47.99 229.33 48.00 202.67 48.00 176.01 Z" />
<path fill="#ad6327" opacity="1.00" d=" M 176.01 176.01 C 202.67 175.99 229.33 175.99 255.99 176.01 C 256.01 202.67 256.01 229.33 255.99 255.99 C 229.33 256.01 202.67 256.01 176.01 255.99 C 175.99 229.33 175.99 202.67 176.01 176.01 Z" />
<path fill="#ad6327" opacity="1.00" d=" M 304.01 176.01 C 309.34 175.99 314.66 175.99 319.99 176.01 C 320.00 202.67 320.01 229.33 319.99 255.99 C 314.66 256.01 309.33 256.01 304.01 255.99 C 304.00 229.33 303.99 202.67 304.01 176.01 Z" />
<path fill="#ad6327" opacity="1.00" d=" M 432.00 176.01 C 437.33 175.99 442.66 175.99 447.99 176.01 C 448.00 202.67 448.00 229.33 447.99 255.99 C 442.66 256.01 437.33 256.01 432.01 255.99 C 431.99 229.33 432.00 202.67 432.00 176.01 Z" />
</g>
<g id="#ffd782ff">
<path fill="#ffd782" opacity="1.00" d=" M 80.00 176.00 C 106.67 176.00 133.33 176.00 160.00 176.00 C 160.00 202.67 160.00 229.33 160.00 256.00 C 133.33 256.00 106.67 256.00 80.00 256.00 C 80.00 229.33 80.00 202.67 80.00 176.00 M 114.39 192.70 C 108.73 194.06 103.61 197.54 100.31 202.34 C 95.56 209.09 94.67 218.35 98.12 225.85 C 100.89 232.07 106.45 236.95 112.97 238.94 C 120.79 241.37 129.83 239.42 135.91 233.91 C 141.25 229.22 144.28 222.05 143.93 214.95 C 143.67 207.34 139.46 200.02 133.06 195.91 C 127.63 192.33 120.71 191.15 114.39 192.70 Z" />
<path fill="#ffd782" opacity="1.00" d=" M 272.00 176.00 C 277.33 176.00 282.67 176.00 288.00 176.00 C 288.00 202.67 288.00 229.33 288.00 256.00 C 282.67 255.99 277.33 255.99 272.00 256.00 C 272.00 229.33 272.00 202.67 272.00 176.00 Z" />
<path fill="#ffd782" opacity="1.00" d=" M 336.00 176.00 C 362.67 176.00 389.33 176.00 416.00 176.00 C 416.00 202.67 416.00 229.33 416.00 256.00 C 389.33 256.00 362.67 256.00 336.00 256.00 C 336.00 229.33 336.00 202.67 336.00 176.00 Z" />
<path fill="#ffd782" opacity="1.00" d=" M 64.00 352.00 C 80.00 352.00 96.00 352.00 112.00 352.00 C 112.00 384.00 112.00 416.00 112.00 448.00 C 96.00 448.00 80.00 448.00 64.00 448.00 C 64.00 416.00 64.00 384.00 64.00 352.00 M 80.00 376.00 C 80.00 381.33 80.00 386.67 80.00 392.00 C 85.33 391.99 90.67 391.99 96.00 392.00 C 96.00 386.67 95.99 381.33 96.00 376.00 C 90.67 376.00 85.33 376.00 80.00 376.00 M 80.00 408.00 C 80.00 413.33 80.00 418.67 80.00 424.00 C 85.33 423.99 90.67 423.99 96.00 424.00 C 95.99 418.67 96.00 413.33 96.00 408.00 C 90.67 408.00 85.33 408.00 80.00 408.00 Z" />
<path fill="#ffd782" opacity="1.00" d=" M 240.00 352.00 C 245.33 352.00 250.67 352.00 256.00 352.00 C 256.00 384.00 256.00 416.00 256.00 448.00 C 250.67 447.99 245.33 447.99 240.00 448.00 C 240.00 416.00 240.00 384.00 240.00 352.00 Z" />
<path fill="#ffd782" opacity="1.00" d=" M 304.00 352.00 C 309.33 352.00 314.67 352.00 320.00 352.00 C 320.00 384.00 320.00 416.00 320.00 448.00 C 314.67 447.99 309.33 447.99 304.00 448.00 C 304.00 416.00 304.00 384.00 304.00 352.00 Z" />
</g>
<g id="#f4f4e6ff">
<path fill="#f4f4e6" opacity="1.00" d=" M 117.42 208.45 C 123.03 206.21 129.41 211.97 127.79 217.78 C 126.75 223.44 119.08 226.00 114.85 222.11 C 110.12 218.49 111.68 210.10 117.42 208.45 Z" />
<path fill="#f4f4e6" opacity="1.00" d=" M 397.34 384.23 C 406.00 382.54 415.04 389.30 415.86 398.09 C 417.11 406.58 410.34 415.12 401.81 415.87 C 393.34 417.06 384.86 410.31 384.13 401.80 C 382.95 393.64 389.20 385.40 397.34 384.23 Z" />
</g>
<g id="#d3843dff">
<path fill="#d3843d" opacity="1.00" d=" M 112.00 272.00 C 170.67 272.00 229.33 272.00 288.00 272.00 C 288.00 293.33 288.00 314.67 288.00 336.00 C 229.33 336.00 170.67 336.00 112.00 336.00 C 112.00 314.67 112.00 293.33 112.00 272.00 Z" />
<path fill="#d3843d" opacity="1.00" d=" M 368.00 272.00 C 373.33 272.00 378.67 272.00 384.00 272.00 C 384.00 293.33 384.00 314.67 384.00 336.00 C 378.67 336.00 373.33 336.00 368.00 336.00 C 368.00 314.67 368.00 293.33 368.00 272.00 Z" />
<path fill="#d3843d" opacity="1.00" d=" M 464.00 272.00 C 469.33 272.00 474.67 272.00 480.00 272.00 C 480.00 293.33 480.00 314.67 480.00 336.00 C 474.67 336.00 469.33 336.00 464.00 336.00 C 464.00 314.67 464.00 293.33 464.00 272.00 Z" />
</g>
<g id="#fcf05aff">
<path fill="#fcf05a" opacity="1.00" d=" M 304.00 272.00 C 320.00 272.00 336.00 272.00 352.00 272.00 C 352.00 293.33 352.00 314.67 352.00 336.00 C 336.00 336.00 320.00 336.00 304.00 336.00 C 304.00 314.67 304.00 293.33 304.00 272.00 Z" />
<path fill="#fcf05a" opacity="1.00" d=" M 400.00 272.00 C 416.00 272.00 432.00 272.00 448.00 272.00 C 448.00 293.33 448.00 314.67 448.00 336.00 C 432.00 336.00 416.00 336.00 400.00 336.00 C 400.00 314.67 400.00 293.33 400.00 272.00 Z" />
</g>
<g id="#66342eff">
<path fill="#66342e" opacity="1.00" d=" M 32.04 352.06 C 37.34 351.93 42.65 351.93 47.96 352.06 C 48.03 384.02 48.03 415.98 47.96 447.95 C 42.65 448.07 37.34 448.07 32.04 447.94 C 31.97 415.98 31.97 384.02 32.04 352.06 Z" />
<path fill="#66342e" opacity="1.00" d=" M 128.04 352.04 C 160.01 351.97 191.99 351.97 223.96 352.04 C 224.03 384.01 224.03 415.99 223.96 447.96 C 191.99 448.03 160.01 448.03 128.04 447.96 C 127.97 415.99 127.97 384.01 128.04 352.04 M 144.04 368.06 C 143.97 389.35 143.97 410.65 144.04 431.95 C 149.35 432.07 154.65 432.07 159.96 431.94 C 160.03 410.65 160.03 389.35 159.96 368.05 C 154.65 367.93 149.34 367.93 144.04 368.06 M 176.04 368.06 C 175.97 389.35 175.97 410.65 176.04 431.95 C 181.34 432.07 186.65 432.07 191.96 431.95 C 192.03 410.65 192.03 389.35 191.96 368.06 C 186.65 367.93 181.34 367.93 176.04 368.06 Z" />
<path fill="#66342e" opacity="1.00" d=" M 272.04 352.06 C 277.34 351.93 282.65 351.93 287.96 352.05 C 288.03 384.02 288.03 415.98 287.96 447.95 C 282.65 448.07 277.35 448.07 272.04 447.95 C 271.97 415.98 271.97 384.02 272.04 352.06 Z" />
<path fill="#66342e" opacity="1.00" d=" M 336.04 352.04 C 378.68 351.97 421.32 351.97 463.96 352.04 C 464.03 384.01 464.03 415.99 463.96 447.96 C 421.32 448.03 378.68 448.03 336.04 447.96 C 335.97 415.99 335.97 384.01 336.04 352.04 M 394.36 368.51 C 385.37 370.06 377.20 375.72 372.55 383.57 C 367.46 391.92 366.61 402.68 370.25 411.76 C 375.15 424.74 389.22 433.40 403.02 431.84 C 417.89 430.73 430.73 417.90 431.83 403.02 C 433.00 391.99 427.87 380.60 418.85 374.15 C 411.91 369.02 402.85 366.98 394.36 368.51 Z" />
</g>
</svg>
